<svg xmlns="http://www.w3.org/2000/svg" width="120" height="120" viewBox="0 0 120 120">
    <g fill="none" fill-rule="evenodd">
        <g>
            <g>
                <g>
                    <g>
                        <path d="M0 0H120V120H0z" transform="translate(-1829 -995) translate(-35) translate(158 990) translate(1706 5) rotate(-180 60 60)"/>
                        <path fill="#F9F9F9" d="M40.966 21.25c6.008 0 10.877 4.866 10.877 10.868v54.4c0 5.99-4.87 10.868-10.877 10.868l-.29-.003c-5.874-.154-10.587-4.96-10.587-10.865v-54.4c0-5.99 4.87-10.868 10.877-10.868zm38.068 0c6.008 0 10.877 4.866 10.877 10.868v54.4c0 5.99-4.87 10.868-10.877 10.868l-.29-.003c-5.874-.154-10.587-4.96-10.587-10.865v-54.4c0-5.99 4.87-10.868 10.877-10.868z" transform="translate(-1829 -995) translate(-35) translate(158 990) translate(1706 5)"/>
                    </g>
                </g>
            </g>
        </g>
    </g>
</svg>
